solid CATIA STL
  facet normal  0.000000e+000 -1.000000e+000  0.000000e+000
    outer loop
      vertex  2.600000e+001  2.100000e+001  1.000000e+000
      vertex -2.600000e+001  2.100000e+001  1.000000e+001
      vertex -2.600000e+001  2.100000e+001  8.500000e+000
    endloop
  endfacet
  facet normal  0.000000e+000 -1.000000e+000  0.000000e+000
    outer loop
      vertex  2.600000e+001  2.100000e+001  1.000000e+000
      vertex -2.600000e+001  2.100000e+001  8.500000e+000
      vertex -2.600000e+001  2.100000e+001  6.500000e+000
    endloop
  endfacet
  facet normal  0.000000e+000 -1.000000e+000  0.000000e+000
    outer loop
      vertex  2.600000e+001  2.100000e+001  1.000000e+000
      vertex -2.600000e+001  2.100000e+001  6.500000e+000
      vertex -2.600000e+001  2.100000e+001  1.000000e+000
    endloop
  endfacet
  facet normal  0.000000e+000 -1.000000e+000  0.000000e+000
    outer loop
      vertex -2.600000e+001  2.100000e+001  1.000000e+001
      vertex  2.600000e+001  2.100000e+001  1.000000e+000
      vertex  2.600000e+001  2.100000e+001  6.500000e+000
    endloop
  endfacet
  facet normal  0.000000e+000 -1.000000e+000  0.000000e+000
    outer loop
      vertex -2.600000e+001  2.100000e+001  1.000000e+001
      vertex  2.600000e+001  2.100000e+001  6.500000e+000
      vertex  2.600000e+001  2.100000e+001  8.500000e+000
    endloop
  endfacet
  facet normal  0.000000e+000 -1.000000e+000  0.000000e+000
    outer loop
      vertex -2.600000e+001  2.100000e+001  1.000000e+001
      vertex  2.600000e+001  2.100000e+001  8.500000e+000
      vertex  2.600000e+001  2.100000e+001  1.000000e+001
    endloop
  endfacet
  facet normal  0.000000e+000 -1.000000e+000  0.000000e+000
    outer loop
      vertex  2.600000e+001  2.100000e+001  8.500000e+000
      vertex  2.600000e+001  2.100000e+001  6.500000e+000
      vertex  2.700000e+001  2.100000e+001  8.500000e+000
    endloop
  endfacet
  facet normal  0.000000e+000 -1.000000e+000  -0.000000e+000
    outer loop
      vertex  2.700000e+001  2.100000e+001  8.500000e+000
      vertex  2.600000e+001  2.100000e+001  6.500000e+000
      vertex  2.700000e+001  2.100000e+001  6.500000e+000
    endloop
  endfacet
  facet normal  0.000000e+000 -1.000000e+000  0.000000e+000
    outer loop
      vertex -2.700000e+001  2.100000e+001  8.500000e+000
      vertex -2.700000e+001  2.100000e+001  6.500000e+000
      vertex -2.600000e+001  2.100000e+001  8.500000e+000
    endloop
  endfacet
  facet normal  0.000000e+000 -1.000000e+000  -0.000000e+000
    outer loop
      vertex -2.600000e+001  2.100000e+001  8.500000e+000
      vertex -2.700000e+001  2.100000e+001  6.500000e+000
      vertex -2.600000e+001  2.100000e+001  6.500000e+000
    endloop
  endfacet
  facet normal  0.000000e+000  1.000000e+000  0.000000e+000
    outer loop
      vertex -1.000000e+000 -2.100000e+001  7.500000e+000
      vertex  7.000000e+000 -2.100000e+001  7.500000e+000
      vertex  2.700000e+001 -2.100000e+001  6.500000e+000
    endloop
  endfacet
  facet normal  0.000000e+000  1.000000e+000  0.000000e+000
    outer loop
      vertex -1.000000e+000 -2.100000e+001  7.500000e+000
      vertex  2.700000e+001 -2.100000e+001  6.500000e+000
      vertex  2.600000e+001 -2.100000e+001  6.500000e+000
    endloop
  endfacet
  facet normal  0.000000e+000  1.000000e+000  0.000000e+000
    outer loop
      vertex -1.000000e+000 -2.100000e+001  7.500000e+000
      vertex  2.600000e+001 -2.100000e+001  6.500000e+000
      vertex -2.600000e+001 -2.100000e+001  6.500000e+000
    endloop
  endfacet
  facet normal  0.000000e+000  1.000000e+000  -0.000000e+000
    outer loop
      vertex -1.000000e+000 -2.100000e+001  7.500000e+000
      vertex -2.600000e+001 -2.100000e+001  6.500000e+000
      vertex -2.700000e+001 -2.100000e+001  6.500000e+000
    endloop
  endfacet
  facet normal  0.000000e+000  1.000000e+000  0.000000e+000
    outer loop
      vertex -1.000000e+000 -2.100000e+001  7.500000e+000
      vertex -2.700000e+001 -2.100000e+001  6.500000e+000
      vertex -2.700000e+001 -2.100000e+001  8.500000e+000
    endloop
  endfacet
  facet normal  -0.000000e+000  1.000000e+000  0.000000e+000
    outer loop
      vertex -1.000000e+000 -2.100000e+001  7.500000e+000
      vertex -2.700000e+001 -2.100000e+001  8.500000e+000
      vertex -2.600000e+001 -2.100000e+001  8.500000e+000
    endloop
  endfacet
  facet normal  -0.000000e+000  1.000000e+000  0.000000e+000
    outer loop
      vertex -1.000000e+000 -2.100000e+001  7.500000e+000
      vertex -2.600000e+001 -2.100000e+001  8.500000e+000
      vertex -2.600000e+001 -2.100000e+001  1.000000e+001
    endloop
  endfacet
  facet normal  -0.000000e+000  1.000000e+000  0.000000e+000
    outer loop
      vertex -1.000000e+000 -2.100000e+001  7.500000e+000
      vertex -2.600000e+001 -2.100000e+001  1.000000e+001
      vertex -1.000000e+000 -2.100000e+001  1.000000e+001
    endloop
  endfacet
  facet normal  0.000000e+000  1.000000e+000  0.000000e+000
    outer loop
      vertex  7.000000e+000 -2.100000e+001  1.000000e+001
      vertex  2.600000e+001 -2.100000e+001  1.000000e+001
      vertex  7.000000e+000 -2.100000e+001  7.500000e+000
    endloop
  endfacet
  facet normal  0.000000e+000  1.000000e+000  0.000000e+000
    outer loop
      vertex  7.000000e+000 -2.100000e+001  7.500000e+000
      vertex  2.600000e+001 -2.100000e+001  1.000000e+001
      vertex  2.600000e+001 -2.100000e+001  8.500000e+000
    endloop
  endfacet
  facet normal  0.000000e+000  1.000000e+000  0.000000e+000
    outer loop
      vertex  7.000000e+000 -2.100000e+001  7.500000e+000
      vertex  2.600000e+001 -2.100000e+001  8.500000e+000
      vertex  2.700000e+001 -2.100000e+001  6.500000e+000
    endloop
  endfacet
  facet normal  0.000000e+000  1.000000e+000  -0.000000e+000
    outer loop
      vertex  2.700000e+001 -2.100000e+001  6.500000e+000
      vertex  2.600000e+001 -2.100000e+001  8.500000e+000
      vertex  2.700000e+001 -2.100000e+001  8.500000e+000
    endloop
  endfacet
  facet normal  0.000000e+000  1.000000e+000  0.000000e+000
    outer loop
      vertex  2.600000e+001 -2.100000e+001  1.000000e+000
      vertex -2.600000e+001 -2.100000e+001  1.000000e+000
      vertex  2.600000e+001 -2.100000e+001  6.500000e+000
    endloop
  endfacet
  facet normal  0.000000e+000  1.000000e+000  0.000000e+000
    outer loop
      vertex  2.600000e+001 -2.100000e+001  6.500000e+000
      vertex -2.600000e+001 -2.100000e+001  1.000000e+000
      vertex -2.600000e+001 -2.100000e+001  6.500000e+000
    endloop
  endfacet
  facet normal  1.000000e+000  0.000000e+000  0.000000e+000
    outer loop
      vertex  2.700000e+001 -2.200000e+001  0.000000e+000
      vertex  2.700000e+001  2.200000e+001  0.000000e+000
      vertex  2.700000e+001  2.100000e+001  6.500000e+000
    endloop
  endfacet
  facet normal  1.000000e+000  0.000000e+000  0.000000e+000
    outer loop
      vertex  2.700000e+001 -2.200000e+001  0.000000e+000
      vertex  2.700000e+001  2.100000e+001  6.500000e+000
      vertex  2.700000e+001  1.900000e+001  6.500000e+000
    endloop
  endfacet
  facet normal  1.000000e+000  0.000000e+000  0.000000e+000
    outer loop
      vertex  2.700000e+001 -2.200000e+001  0.000000e+000
      vertex  2.700000e+001  1.900000e+001  6.500000e+000
      vertex  2.700000e+001 -1.900000e+001  6.500000e+000
    endloop
  endfacet
  facet normal  1.000000e+000  0.000000e+000  0.000000e+000
    outer loop
      vertex  2.700000e+001 -2.200000e+001  0.000000e+000
      vertex  2.700000e+001 -1.900000e+001  6.500000e+000
      vertex  2.700000e+001 -2.100000e+001  6.500000e+000
    endloop
  endfacet
  facet normal  1.000000e+000  0.000000e+000  -0.000000e+000
    outer loop
      vertex  2.700000e+001 -2.200000e+001  0.000000e+000
      vertex  2.700000e+001 -2.100000e+001  6.500000e+000
      vertex  2.700000e+001 -2.100000e+001  8.500000e+000
    endloop
  endfacet
  facet normal  1.000000e+000  0.000000e+000  -0.000000e+000
    outer loop
      vertex  2.700000e+001 -2.200000e+001  0.000000e+000
      vertex  2.700000e+001 -2.100000e+001  8.500000e+000
      vertex  2.700000e+001 -2.100000e+001  1.000000e+001
    endloop
  endfacet
  facet normal  1.000000e+000  0.000000e+000  0.000000e+000
    outer loop
      vertex  2.700000e+001 -2.200000e+001  0.000000e+000
      vertex  2.700000e+001 -2.100000e+001  1.000000e+001
      vertex  2.700000e+001 -2.200000e+001  1.000000e+001
    endloop
  endfacet
  facet normal  1.000000e+000  0.000000e+000  0.000000e+000
    outer loop
      vertex  2.700000e+001  0.000000e+000  1.000000e+001
      vertex  2.700000e+001 -1.900000e+001  8.500000e+000
      vertex  2.700000e+001  1.900000e+001  8.500000e+000
    endloop
  endfacet
  facet normal  1.000000e+000  0.000000e+000  0.000000e+000
    outer loop
      vertex  2.700000e+001  1.900000e+001  8.500000e+000
      vertex  2.700000e+001 -1.900000e+001  8.500000e+000
      vertex  2.700000e+001 -1.900000e+001  6.500000e+000
    endloop
  endfacet
  facet normal  1.000000e+000  0.000000e+000  0.000000e+000
    outer loop
      vertex  2.700000e+001  1.900000e+001  8.500000e+000
      vertex  2.700000e+001 -1.900000e+001  6.500000e+000
      vertex  2.700000e+001  1.900000e+001  6.500000e+000
    endloop
  endfacet
  facet normal  1.000000e+000  0.000000e+000  0.000000e+000
    outer loop
      vertex  2.700000e+001  1.900000e+001  8.500000e+000
      vertex  2.700000e+001  2.100000e+001  8.500000e+000
      vertex  2.700000e+001  0.000000e+000  1.000000e+001
    endloop
  endfacet
  facet normal  1.000000e+000  -0.000000e+000  0.000000e+000
    outer loop
      vertex  2.700000e+001  0.000000e+000  1.000000e+001
      vertex  2.700000e+001  2.100000e+001  8.500000e+000
      vertex  2.700000e+001  2.200000e+001  1.000000e+001
    endloop
  endfacet
  facet normal  1.000000e+000  0.000000e+000  0.000000e+000
    outer loop
      vertex  2.700000e+001  2.100000e+001  8.500000e+000
      vertex  2.700000e+001  2.100000e+001  6.500000e+000
      vertex  2.700000e+001  2.200000e+001  1.000000e+001
    endloop
  endfacet
  facet normal  1.000000e+000  0.000000e+000  0.000000e+000
    outer loop
      vertex  2.700000e+001  2.200000e+001  1.000000e+001
      vertex  2.700000e+001  2.100000e+001  6.500000e+000
      vertex  2.700000e+001  2.200000e+001  0.000000e+000
    endloop
  endfacet
  facet normal  1.000000e+000  0.000000e+000  0.000000e+000
    outer loop
      vertex  2.700000e+001 -1.900000e+001  8.500000e+000
      vertex  2.700000e+001  0.000000e+000  1.000000e+001
      vertex  2.700000e+001 -2.100000e+001  8.500000e+000
    endloop
  endfacet
  facet normal  1.000000e+000  0.000000e+000  0.000000e+000
    outer loop
      vertex  2.700000e+001 -2.100000e+001  8.500000e+000
      vertex  2.700000e+001  0.000000e+000  1.000000e+001
      vertex  2.700000e+001 -2.100000e+001  1.000000e+001
    endloop
  endfacet
  facet normal -1.000000e+000  0.000000e+000  0.000000e+000
    outer loop
      vertex  2.600000e+001 -1.900000e+001  8.500000e+000
      vertex  2.600000e+001 -2.100000e+001  8.500000e+000
      vertex  2.600000e+001 -2.100000e+001  1.000000e+001
    endloop
  endfacet
  facet normal -1.000000e+000  0.000000e+000  0.000000e+000
    outer loop
      vertex  2.600000e+001 -1.900000e+001  8.500000e+000
      vertex  2.600000e+001 -2.100000e+001  1.000000e+001
      vertex  2.600000e+001  1.900000e+001  8.500000e+000
    endloop
  endfacet
  facet normal -1.000000e+000  -0.000000e+000  -0.000000e+000
    outer loop
      vertex  2.600000e+001 -1.900000e+001  8.500000e+000
      vertex  2.600000e+001  1.900000e+001  8.500000e+000
      vertex  2.600000e+001  1.900000e+001  6.500000e+000
    endloop
  endfacet
  facet normal -1.000000e+000  0.000000e+000  0.000000e+000
    outer loop
      vertex  2.600000e+001 -1.900000e+001  8.500000e+000
      vertex  2.600000e+001  1.900000e+001  6.500000e+000
      vertex  2.600000e+001 -1.900000e+001  6.500000e+000
    endloop
  endfacet
  facet normal -1.000000e+000  0.000000e+000  0.000000e+000
    outer loop
      vertex  2.600000e+001 -2.100000e+001  1.000000e+000
      vertex  2.600000e+001 -2.100000e+001  6.500000e+000
      vertex  2.600000e+001 -1.900000e+001  6.500000e+000
    endloop
  endfacet
  facet normal -9.999999e-001  0.000000e+000  -0.000000e+000
    outer loop
      vertex  2.600000e+001 -2.100000e+001  1.000000e+000
      vertex  2.600000e+001 -1.900000e+001  6.500000e+000
      vertex  2.600000e+001  1.900000e+001  6.500000e+000
    endloop
  endfacet
  facet normal -1.000000e+000  0.000000e+000  -0.000000e+000
    outer loop
      vertex  2.600000e+001 -2.100000e+001  1.000000e+000
      vertex  2.600000e+001  1.900000e+001  6.500000e+000
      vertex  2.600000e+001  2.100000e+001  6.500000e+000
    endloop
  endfacet
  facet normal -1.000000e+000  0.000000e+000  -0.000000e+000
    outer loop
      vertex  2.600000e+001 -2.100000e+001  1.000000e+000
      vertex  2.600000e+001  2.100000e+001  6.500000e+000
      vertex  2.600000e+001  2.100000e+001  1.000000e+000
    endloop
  endfacet
  facet normal -1.000000e+000  0.000000e+000  0.000000e+000
    outer loop
      vertex  2.600000e+001  2.100000e+001  1.000000e+001
      vertex  2.600000e+001  2.100000e+001  8.500000e+000
      vertex  2.600000e+001 -2.100000e+001  1.000000e+001
    endloop
  endfacet
  facet normal -1.000000e+000  0.000000e+000  0.000000e+000
    outer loop
      vertex  2.600000e+001 -2.100000e+001  1.000000e+001
      vertex  2.600000e+001  2.100000e+001  8.500000e+000
      vertex  2.600000e+001  1.900000e+001  8.500000e+000
    endloop
  endfacet
  facet normal  1.000000e+000  0.000000e+000  0.000000e+000
    outer loop
      vertex -2.600000e+001  2.100000e+001  1.000000e+000
      vertex -2.600000e+001  2.100000e+001  6.500000e+000
      vertex -2.600000e+001  1.900000e+001  6.500000e+000
    endloop
  endfacet
  facet normal  1.000000e+000  0.000000e+000  0.000000e+000
    outer loop
      vertex -2.600000e+001  2.100000e+001  1.000000e+000
      vertex -2.600000e+001  1.900000e+001  6.500000e+000
      vertex -2.600000e+001  6.000000e+000  6.500000e+000
    endloop
  endfacet
  facet normal  1.000000e+000  0.000000e+000  0.000000e+000
    outer loop
      vertex -2.600000e+001  2.100000e+001  1.000000e+000
      vertex -2.600000e+001  6.000000e+000  6.500000e+000
      vertex -2.600000e+001 -6.000000e+000  6.500000e+000
    endloop
  endfacet
  facet normal  1.000000e+000  0.000000e+000  0.000000e+000
    outer loop
      vertex -2.600000e+001  2.100000e+001  1.000000e+000
      vertex -2.600000e+001 -6.000000e+000  6.500000e+000
      vertex -2.600000e+001 -1.900000e+001  6.500000e+000
    endloop
  endfacet
  facet normal  1.000000e+000  0.000000e+000  0.000000e+000
    outer loop
      vertex -2.600000e+001  2.100000e+001  1.000000e+000
      vertex -2.600000e+001 -1.900000e+001  6.500000e+000
      vertex -2.600000e+001 -2.100000e+001  6.500000e+000
    endloop
  endfacet
  facet normal  1.000000e+000  0.000000e+000  0.000000e+000
    outer loop
      vertex -2.600000e+001  2.100000e+001  1.000000e+000
      vertex -2.600000e+001 -2.100000e+001  6.500000e+000
      vertex -2.600000e+001 -2.100000e+001  1.000000e+000
    endloop
  endfacet
  facet normal  1.000000e+000  0.000000e+000  0.000000e+000
    outer loop
      vertex -2.600000e+001  6.000000e+000  1.000000e+001
      vertex -2.600000e+001  6.000000e+000  6.500000e+000
      vertex -2.600000e+001  1.900000e+001  6.500000e+000
    endloop
  endfacet
  facet normal  1.000000e+000  0.000000e+000  -0.000000e+000
    outer loop
      vertex -2.600000e+001  6.000000e+000  1.000000e+001
      vertex -2.600000e+001  1.900000e+001  6.500000e+000
      vertex -2.600000e+001  1.900000e+001  8.500000e+000
    endloop
  endfacet
  facet normal  1.000000e+000  0.000000e+000  -0.000000e+000
    outer loop
      vertex -2.600000e+001  6.000000e+000  1.000000e+001
      vertex -2.600000e+001  1.900000e+001  8.500000e+000
      vertex -2.600000e+001  2.100000e+001  8.500000e+000
    endloop
  endfacet
  facet normal  1.000000e+000  0.000000e+000  -0.000000e+000
    outer loop
      vertex -2.600000e+001  6.000000e+000  1.000000e+001
      vertex -2.600000e+001  2.100000e+001  8.500000e+000
      vertex -2.600000e+001  2.100000e+001  1.000000e+001
    endloop
  endfacet
  facet normal  1.000000e+000  0.000000e+000  0.000000e+000
    outer loop
      vertex -2.600000e+001 -1.900000e+001  6.500000e+000
      vertex -2.600000e+001 -6.000000e+000  6.500000e+000
      vertex -2.600000e+001 -1.900000e+001  8.500000e+000
    endloop
  endfacet
  facet normal  1.000000e+000  -0.000000e+000  0.000000e+000
    outer loop
      vertex -2.600000e+001 -1.900000e+001  8.500000e+000
      vertex -2.600000e+001 -6.000000e+000  6.500000e+000
      vertex -2.600000e+001 -6.000000e+000  1.000000e+001
    endloop
  endfacet
  facet normal  1.000000e+000  0.000000e+000  0.000000e+000
    outer loop
      vertex -2.600000e+001 -1.900000e+001  8.500000e+000
      vertex -2.600000e+001 -6.000000e+000  1.000000e+001
      vertex -2.600000e+001 -2.100000e+001  8.500000e+000
    endloop
  endfacet
  facet normal  1.000000e+000  0.000000e+000  0.000000e+000
    outer loop
      vertex -2.600000e+001 -2.100000e+001  8.500000e+000
      vertex -2.600000e+001 -6.000000e+000  1.000000e+001
      vertex -2.600000e+001 -2.100000e+001  1.000000e+001
    endloop
  endfacet
  facet normal -1.000000e+000  -0.000000e+000  0.000000e+000
    outer loop
      vertex -2.700000e+001  6.000000e+000  1.000000e+001
      vertex -2.700000e+001  2.200000e+001  1.000000e+001
      vertex -2.700000e+001  2.100000e+001  8.500000e+000
    endloop
  endfacet
  facet normal -1.000000e+000  0.000000e+000  0.000000e+000
    outer loop
      vertex -2.700000e+001  6.000000e+000  1.000000e+001
      vertex -2.700000e+001  2.100000e+001  8.500000e+000
      vertex -2.700000e+001  1.900000e+001  8.500000e+000
    endloop
  endfacet
  facet normal -1.000000e+000  -0.000000e+000  -0.000000e+000
    outer loop
      vertex -2.700000e+001  6.000000e+000  1.000000e+001
      vertex -2.700000e+001  1.900000e+001  8.500000e+000
      vertex -2.700000e+001  1.900000e+001  6.500000e+000
    endloop
  endfacet
  facet normal -1.000000e+000  0.000000e+000  0.000000e+000
    outer loop
      vertex -2.700000e+001  6.000000e+000  1.000000e+001
      vertex -2.700000e+001  1.900000e+001  6.500000e+000
      vertex -2.700000e+001  6.000000e+000  6.500000e+000
    endloop
  endfacet
  facet normal -1.000000e+000  0.000000e+000  0.000000e+000
    outer loop
      vertex -2.700000e+001  2.200000e+001  0.000000e+000
      vertex -2.700000e+001 -2.200000e+001  0.000000e+000
      vertex -2.700000e+001 -2.100000e+001  6.500000e+000
    endloop
  endfacet
  facet normal -1.000000e+000  0.000000e+000  0.000000e+000
    outer loop
      vertex -2.700000e+001  2.200000e+001  0.000000e+000
      vertex -2.700000e+001 -2.100000e+001  6.500000e+000
      vertex -2.700000e+001 -1.900000e+001  6.500000e+000
    endloop
  endfacet
  facet normal -1.000000e+000  0.000000e+000  0.000000e+000
    outer loop
      vertex -2.700000e+001  2.200000e+001  0.000000e+000
      vertex -2.700000e+001 -1.900000e+001  6.500000e+000
      vertex -2.700000e+001 -6.000000e+000  6.500000e+000
    endloop
  endfacet
  facet normal -1.000000e+000  0.000000e+000  0.000000e+000
    outer loop
      vertex -2.700000e+001  2.200000e+001  0.000000e+000
      vertex -2.700000e+001 -6.000000e+000  6.500000e+000
      vertex -2.700000e+001  6.000000e+000  6.500000e+000
    endloop
  endfacet
  facet normal -1.000000e+000  0.000000e+000  0.000000e+000
    outer loop
      vertex -2.700000e+001  2.200000e+001  0.000000e+000
      vertex -2.700000e+001  6.000000e+000  6.500000e+000
      vertex -2.700000e+001  1.900000e+001  6.500000e+000
    endloop
  endfacet
  facet normal -1.000000e+000  0.000000e+000  0.000000e+000
    outer loop
      vertex -2.700000e+001  2.200000e+001  0.000000e+000
      vertex -2.700000e+001  1.900000e+001  6.500000e+000
      vertex -2.700000e+001  2.100000e+001  6.500000e+000
    endloop
  endfacet
  facet normal -1.000000e+000  0.000000e+000  0.000000e+000
    outer loop
      vertex -2.700000e+001  2.200000e+001  0.000000e+000
      vertex -2.700000e+001  2.100000e+001  6.500000e+000
      vertex -2.700000e+001  2.100000e+001  8.500000e+000
    endloop
  endfacet
  facet normal -1.000000e+000  0.000000e+000  0.000000e+000
    outer loop
      vertex -2.700000e+001  2.200000e+001  0.000000e+000
      vertex -2.700000e+001  2.100000e+001  8.500000e+000
      vertex -2.700000e+001  2.200000e+001  1.000000e+001
    endloop
  endfacet
  facet normal -1.000000e+000  -0.000000e+000  -0.000000e+000
    outer loop
      vertex -2.700000e+001 -2.200000e+001  1.000000e+001
      vertex -2.700000e+001 -2.100000e+001  1.000000e+001
      vertex -2.700000e+001 -2.100000e+001  8.500000e+000
    endloop
  endfacet
  facet normal -1.000000e+000  0.000000e+000  0.000000e+000
    outer loop
      vertex -2.700000e+001 -2.100000e+001  8.500000e+000
      vertex -2.700000e+001 -2.100000e+001  1.000000e+001
      vertex -2.700000e+001 -6.000000e+000  1.000000e+001
    endloop
  endfacet
  facet normal -1.000000e+000  0.000000e+000  0.000000e+000
    outer loop
      vertex -2.700000e+001 -2.100000e+001  8.500000e+000
      vertex -2.700000e+001 -6.000000e+000  1.000000e+001
      vertex -2.700000e+001 -1.900000e+001  8.500000e+000
    endloop
  endfacet
  facet normal -1.000000e+000  0.000000e+000  0.000000e+000
    outer loop
      vertex -2.700000e+001 -1.900000e+001  8.500000e+000
      vertex -2.700000e+001 -6.000000e+000  1.000000e+001
      vertex -2.700000e+001 -6.000000e+000  6.500000e+000
    endloop
  endfacet
  facet normal -1.000000e+000  0.000000e+000  0.000000e+000
    outer loop
      vertex -2.700000e+001 -1.900000e+001  8.500000e+000
      vertex -2.700000e+001 -6.000000e+000  6.500000e+000
      vertex -2.700000e+001 -1.900000e+001  6.500000e+000
    endloop
  endfacet
  facet normal -1.000000e+000  0.000000e+000  0.000000e+000
    outer loop
      vertex -2.700000e+001 -2.200000e+001  0.000000e+000
      vertex -2.700000e+001 -2.200000e+001  1.000000e+001
      vertex -2.700000e+001 -2.100000e+001  6.500000e+000
    endloop
  endfacet
  facet normal -1.000000e+000  0.000000e+000  0.000000e+000
    outer loop
      vertex -2.700000e+001 -2.100000e+001  6.500000e+000
      vertex -2.700000e+001 -2.200000e+001  1.000000e+001
      vertex -2.700000e+001 -2.100000e+001  8.500000e+000
    endloop
  endfacet
  facet normal  0.000000e+000  0.000000e+000  1.000000e+000
    outer loop
      vertex -1.000000e+000 -2.100000e+001  7.500000e+000
      vertex -1.000000e+000 -2.200000e+001  7.500000e+000
      vertex  7.000000e+000 -2.100000e+001  7.500000e+000
    endloop
  endfacet
  facet normal  0.000000e+000  0.000000e+000  1.000000e+000
    outer loop
      vertex  7.000000e+000 -2.100000e+001  7.500000e+000
      vertex -1.000000e+000 -2.200000e+001  7.500000e+000
      vertex  7.000000e+000 -2.200000e+001  7.500000e+000
    endloop
  endfacet
  facet normal -1.000000e+000  0.000000e+000  0.000000e+000
    outer loop
      vertex  7.000000e+000 -2.100000e+001  7.500000e+000
      vertex  7.000000e+000 -2.200000e+001  7.500000e+000
      vertex  7.000000e+000 -2.100000e+001  1.000000e+001
    endloop
  endfacet
  facet normal -1.000000e+000  -0.000000e+000  0.000000e+000
    outer loop
      vertex  7.000000e+000 -2.100000e+001  1.000000e+001
      vertex  7.000000e+000 -2.200000e+001  7.500000e+000
      vertex  7.000000e+000 -2.200000e+001  1.000000e+001
    endloop
  endfacet
  facet normal  1.000000e+000  -0.000000e+000  0.000000e+000
    outer loop
      vertex -1.000000e+000 -2.100000e+001  1.000000e+001
      vertex -1.000000e+000 -2.200000e+001  1.000000e+001
      vertex -1.000000e+000 -2.100000e+001  7.500000e+000
    endloop
  endfacet
  facet normal  1.000000e+000  0.000000e+000  0.000000e+000
    outer loop
      vertex -1.000000e+000 -2.100000e+001  7.500000e+000
      vertex -1.000000e+000 -2.200000e+001  1.000000e+001
      vertex -1.000000e+000 -2.200000e+001  7.500000e+000
    endloop
  endfacet
  facet normal  -0.000000e+000  0.000000e+000 -1.000000e+000
    outer loop
      vertex -2.700000e+001  2.100000e+001  8.500000e+000
      vertex -2.600000e+001  2.100000e+001  8.500000e+000
      vertex -2.700000e+001  1.900000e+001  8.500000e+000
    endloop
  endfacet
  facet normal  0.000000e+000  0.000000e+000 -1.000000e+000
    outer loop
      vertex -2.700000e+001  1.900000e+001  8.500000e+000
      vertex -2.600000e+001  2.100000e+001  8.500000e+000
      vertex -2.600000e+001  1.900000e+001  8.500000e+000
    endloop
  endfacet
  facet normal  -0.000000e+000  0.000000e+000 -1.000000e+000
    outer loop
      vertex  2.600000e+001  2.100000e+001  8.500000e+000
      vertex  2.700000e+001  2.100000e+001  8.500000e+000
      vertex  2.600000e+001  1.900000e+001  8.500000e+000
    endloop
  endfacet
  facet normal  0.000000e+000  0.000000e+000 -1.000000e+000
    outer loop
      vertex  2.600000e+001  1.900000e+001  8.500000e+000
      vertex  2.700000e+001  2.100000e+001  8.500000e+000
      vertex  2.700000e+001  1.900000e+001  8.500000e+000
    endloop
  endfacet
  facet normal  0.000000e+000  1.000000e+000  0.000000e+000
    outer loop
      vertex -2.700000e+001  1.900000e+001  6.500000e+000
      vertex -2.700000e+001  1.900000e+001  8.500000e+000
      vertex -2.600000e+001  1.900000e+001  6.500000e+000
    endloop
  endfacet
  facet normal  0.000000e+000  1.000000e+000  -0.000000e+000
    outer loop
      vertex -2.600000e+001  1.900000e+001  6.500000e+000
      vertex -2.700000e+001  1.900000e+001  8.500000e+000
      vertex -2.600000e+001  1.900000e+001  8.500000e+000
    endloop
  endfacet
  facet normal  0.000000e+000  1.000000e+000  0.000000e+000
    outer loop
      vertex  2.600000e+001  1.900000e+001  6.500000e+000
      vertex  2.600000e+001  1.900000e+001  8.500000e+000
      vertex  2.700000e+001  1.900000e+001  6.500000e+000
    endloop
  endfacet
  facet normal  0.000000e+000  1.000000e+000  -0.000000e+000
    outer loop
      vertex  2.700000e+001  1.900000e+001  6.500000e+000
      vertex  2.600000e+001  1.900000e+001  8.500000e+000
      vertex  2.700000e+001  1.900000e+001  8.500000e+000
    endloop
  endfacet
  facet normal  -0.000000e+000  0.000000e+000  1.000000e+000
    outer loop
      vertex -2.600000e+001  2.100000e+001  6.500000e+000
      vertex -2.700000e+001  2.100000e+001  6.500000e+000
      vertex -2.600000e+001  1.900000e+001  6.500000e+000
    endloop
  endfacet
  facet normal  0.000000e+000  0.000000e+000  1.000000e+000
    outer loop
      vertex -2.600000e+001  1.900000e+001  6.500000e+000
      vertex -2.700000e+001  2.100000e+001  6.500000e+000
      vertex -2.700000e+001  1.900000e+001  6.500000e+000
    endloop
  endfacet
  facet normal  -0.000000e+000  0.000000e+000  1.000000e+000
    outer loop
      vertex  2.700000e+001  2.100000e+001  6.500000e+000
      vertex  2.600000e+001  2.100000e+001  6.500000e+000
      vertex  2.700000e+001  1.900000e+001  6.500000e+000
    endloop
  endfacet
  facet normal  0.000000e+000  0.000000e+000  1.000000e+000
    outer loop
      vertex  2.700000e+001  1.900000e+001  6.500000e+000
      vertex  2.600000e+001  2.100000e+001  6.500000e+000
      vertex  2.600000e+001  1.900000e+001  6.500000e+000
    endloop
  endfacet
  facet normal  -0.000000e+000  0.000000e+000  1.000000e+000
    outer loop
      vertex -2.600000e+001 -1.900000e+001  6.500000e+000
      vertex -2.700000e+001 -1.900000e+001  6.500000e+000
      vertex -2.600000e+001 -2.100000e+001  6.500000e+000
    endloop
  endfacet
  facet normal  0.000000e+000  0.000000e+000  1.000000e+000
    outer loop
      vertex -2.600000e+001 -2.100000e+001  6.500000e+000
      vertex -2.700000e+001 -1.900000e+001  6.500000e+000
      vertex -2.700000e+001 -2.100000e+001  6.500000e+000
    endloop
  endfacet
  facet normal  -0.000000e+000  0.000000e+000  1.000000e+000
    outer loop
      vertex  2.700000e+001 -1.900000e+001  6.500000e+000
      vertex  2.600000e+001 -1.900000e+001  6.500000e+000
      vertex  2.700000e+001 -2.100000e+001  6.500000e+000
    endloop
  endfacet
  facet normal  0.000000e+000  0.000000e+000  1.000000e+000
    outer loop
      vertex  2.700000e+001 -2.100000e+001  6.500000e+000
      vertex  2.600000e+001 -1.900000e+001  6.500000e+000
      vertex  2.600000e+001 -2.100000e+001  6.500000e+000
    endloop
  endfacet
  facet normal  0.000000e+000 -1.000000e+000  0.000000e+000
    outer loop
      vertex -2.700000e+001 -1.900000e+001  6.500000e+000
      vertex -2.600000e+001 -1.900000e+001  6.500000e+000
      vertex -2.700000e+001 -1.900000e+001  8.500000e+000
    endloop
  endfacet
  facet normal  0.000000e+000 -1.000000e+000  0.000000e+000
    outer loop
      vertex -2.700000e+001 -1.900000e+001  8.500000e+000
      vertex -2.600000e+001 -1.900000e+001  6.500000e+000
      vertex -2.600000e+001 -1.900000e+001  8.500000e+000
    endloop
  endfacet
  facet normal  0.000000e+000 -1.000000e+000  0.000000e+000
    outer loop
      vertex  2.600000e+001 -1.900000e+001  6.500000e+000
      vertex  2.700000e+001 -1.900000e+001  6.500000e+000
      vertex  2.600000e+001 -1.900000e+001  8.500000e+000
    endloop
  endfacet
  facet normal  0.000000e+000 -1.000000e+000  0.000000e+000
    outer loop
      vertex  2.600000e+001 -1.900000e+001  8.500000e+000
      vertex  2.700000e+001 -1.900000e+001  6.500000e+000
      vertex  2.700000e+001 -1.900000e+001  8.500000e+000
    endloop
  endfacet
  facet normal  -0.000000e+000  0.000000e+000 -1.000000e+000
    outer loop
      vertex -2.700000e+001 -1.900000e+001  8.500000e+000
      vertex -2.600000e+001 -1.900000e+001  8.500000e+000
      vertex -2.700000e+001 -2.100000e+001  8.500000e+000
    endloop
  endfacet
  facet normal  0.000000e+000  0.000000e+000 -1.000000e+000
    outer loop
      vertex -2.700000e+001 -2.100000e+001  8.500000e+000
      vertex -2.600000e+001 -1.900000e+001  8.500000e+000
      vertex -2.600000e+001 -2.100000e+001  8.500000e+000
    endloop
  endfacet
  facet normal  -0.000000e+000  0.000000e+000 -1.000000e+000
    outer loop
      vertex  2.600000e+001 -1.900000e+001  8.500000e+000
      vertex  2.700000e+001 -1.900000e+001  8.500000e+000
      vertex  2.600000e+001 -2.100000e+001  8.500000e+000
    endloop
  endfacet
  facet normal  0.000000e+000  0.000000e+000 -1.000000e+000
    outer loop
      vertex  2.600000e+001 -2.100000e+001  8.500000e+000
      vertex  2.700000e+001 -1.900000e+001  8.500000e+000
      vertex  2.700000e+001 -2.100000e+001  8.500000e+000
    endloop
  endfacet
  facet normal  -0.000000e+000 -1.000000e+000  0.000000e+000
    outer loop
      vertex -2.700000e+001 -2.200000e+001  0.000000e+000
      vertex -1.000000e+000 -2.200000e+001  1.000000e+001
      vertex -2.700000e+001 -2.200000e+001  1.000000e+001
    endloop
  endfacet
  facet normal  0.000000e+000 -1.000000e+000  0.000000e+000
    outer loop
      vertex -1.000000e+000 -2.200000e+001  1.000000e+001
      vertex -2.700000e+001 -2.200000e+001  0.000000e+000
      vertex -1.000000e+000 -2.200000e+001  7.500000e+000
    endloop
  endfacet
  facet normal  0.000000e+000 -1.000000e+000  -0.000000e+000
    outer loop
      vertex -1.000000e+000 -2.200000e+001  7.500000e+000
      vertex -2.700000e+001 -2.200000e+001  0.000000e+000
      vertex  2.700000e+001 -2.200000e+001  0.000000e+000
    endloop
  endfacet
  facet normal  0.000000e+000 -1.000000e+000  0.000000e+000
    outer loop
      vertex -1.000000e+000 -2.200000e+001  7.500000e+000
      vertex  2.700000e+001 -2.200000e+001  0.000000e+000
      vertex  7.000000e+000 -2.200000e+001  7.500000e+000
    endloop
  endfacet
  facet normal  0.000000e+000 -1.000000e+000  0.000000e+000
    outer loop
      vertex  7.000000e+000 -2.200000e+001  7.500000e+000
      vertex  2.700000e+001 -2.200000e+001  0.000000e+000
      vertex  2.700000e+001 -2.200000e+001  1.000000e+001
    endloop
  endfacet
  facet normal  -0.000000e+000 -1.000000e+000  0.000000e+000
    outer loop
      vertex  7.000000e+000 -2.200000e+001  7.500000e+000
      vertex  2.700000e+001 -2.200000e+001  1.000000e+001
      vertex  7.000000e+000 -2.200000e+001  1.000000e+001
    endloop
  endfacet
  facet normal  -0.000000e+000  0.000000e+000  1.000000e+000
    outer loop
      vertex -2.600000e+001 -6.000000e+000  1.000000e+001
      vertex -2.700000e+001 -6.000000e+000  1.000000e+001
      vertex -2.700000e+001 -2.100000e+001  1.000000e+001
    endloop
  endfacet
  facet normal  0.000000e+000  -0.000000e+000  1.000000e+000
    outer loop
      vertex -2.700000e+001 -2.200000e+001  1.000000e+001
      vertex -1.000000e+000 -2.200000e+001  1.000000e+001
      vertex -1.000000e+000 -2.100000e+001  1.000000e+001
    endloop
  endfacet
  facet normal  0.000000e+000  0.000000e+000  1.000000e+000
    outer loop
      vertex -2.700000e+001 -2.200000e+001  1.000000e+001
      vertex -1.000000e+000 -2.100000e+001  1.000000e+001
      vertex -2.600000e+001 -2.100000e+001  1.000000e+001
    endloop
  endfacet
  facet normal  0.000000e+000  -0.000000e+000  1.000000e+000
    outer loop
      vertex -2.700000e+001 -2.200000e+001  1.000000e+001
      vertex -2.600000e+001 -2.100000e+001  1.000000e+001
      vertex -2.600000e+001 -6.000000e+000  1.000000e+001
    endloop
  endfacet
  facet normal  0.000000e+000  0.000000e+000  1.000000e+000
    outer loop
      vertex -2.700000e+001 -2.200000e+001  1.000000e+001
      vertex -2.600000e+001 -6.000000e+000  1.000000e+001
      vertex -2.700000e+001 -2.100000e+001  1.000000e+001
    endloop
  endfacet
  facet normal  -0.000000e+000  0.000000e+000  1.000000e+000
    outer loop
      vertex  2.600000e+001 -2.100000e+001  1.000000e+001
      vertex  7.000000e+000 -2.100000e+001  1.000000e+001
      vertex  7.000000e+000 -2.200000e+001  1.000000e+001
    endloop
  endfacet
  facet normal  0.000000e+000  0.000000e+000  1.000000e+000
    outer loop
      vertex  2.600000e+001 -2.100000e+001  1.000000e+001
      vertex  7.000000e+000 -2.200000e+001  1.000000e+001
      vertex  2.700000e+001 -2.200000e+001  1.000000e+001
    endloop
  endfacet
  facet normal  0.000000e+000  -0.000000e+000  1.000000e+000
    outer loop
      vertex  2.600000e+001 -2.100000e+001  1.000000e+001
      vertex  2.700000e+001 -2.200000e+001  1.000000e+001
      vertex  2.700000e+001 -2.100000e+001  1.000000e+001
    endloop
  endfacet
  facet normal  0.000000e+000  -0.000000e+000  1.000000e+000
    outer loop
      vertex  2.600000e+001 -2.100000e+001  1.000000e+001
      vertex  2.700000e+001 -2.100000e+001  1.000000e+001
      vertex  2.700000e+001  0.000000e+000  1.000000e+001
    endloop
  endfacet
  facet normal  0.000000e+000  -0.000000e+000  1.000000e+000
    outer loop
      vertex  2.600000e+001 -2.100000e+001  1.000000e+001
      vertex  2.700000e+001  0.000000e+000  1.000000e+001
      vertex  2.700000e+001  2.200000e+001  1.000000e+001
    endloop
  endfacet
  facet normal  0.000000e+000  0.000000e+000  1.000000e+000
    outer loop
      vertex  2.600000e+001 -2.100000e+001  1.000000e+001
      vertex  2.700000e+001  2.200000e+001  1.000000e+001
      vertex  2.600000e+001  2.100000e+001  1.000000e+001
    endloop
  endfacet
  facet normal  -0.000000e+000  0.000000e+000  1.000000e+000
    outer loop
      vertex  2.700000e+001  2.200000e+001  1.000000e+001
      vertex -2.700000e+001  2.200000e+001  1.000000e+001
      vertex  2.600000e+001  2.100000e+001  1.000000e+001
    endloop
  endfacet
  facet normal  0.000000e+000  0.000000e+000  1.000000e+000
    outer loop
      vertex  2.600000e+001  2.100000e+001  1.000000e+001
      vertex -2.700000e+001  2.200000e+001  1.000000e+001
      vertex -2.600000e+001  2.100000e+001  1.000000e+001
    endloop
  endfacet
  facet normal  0.000000e+000  0.000000e+000  1.000000e+000
    outer loop
      vertex -2.700000e+001  2.200000e+001  1.000000e+001
      vertex -2.700000e+001  6.000000e+000  1.000000e+001
      vertex -2.600000e+001  2.100000e+001  1.000000e+001
    endloop
  endfacet
  facet normal  0.000000e+000  0.000000e+000  1.000000e+000
    outer loop
      vertex -2.600000e+001  2.100000e+001  1.000000e+001
      vertex -2.700000e+001  6.000000e+000  1.000000e+001
      vertex -2.600000e+001  6.000000e+000  1.000000e+001
    endloop
  endfacet
  facet normal  0.000000e+000 -1.000000e+000  0.000000e+000
    outer loop
      vertex -2.600000e+001  6.000000e+000  1.000000e+001
      vertex -2.700000e+001  6.000000e+000  1.000000e+001
      vertex -2.600000e+001  6.000000e+000  6.500000e+000
    endloop
  endfacet
  facet normal  0.000000e+000 -1.000000e+000  0.000000e+000
    outer loop
      vertex -2.600000e+001  6.000000e+000  6.500000e+000
      vertex -2.700000e+001  6.000000e+000  1.000000e+001
      vertex -2.700000e+001  6.000000e+000  6.500000e+000
    endloop
  endfacet
  facet normal  -0.000000e+000  0.000000e+000  1.000000e+000
    outer loop
      vertex -2.600000e+001  6.000000e+000  6.500000e+000
      vertex -2.700000e+001  6.000000e+000  6.500000e+000
      vertex -2.600000e+001 -6.000000e+000  6.500000e+000
    endloop
  endfacet
  facet normal  0.000000e+000  0.000000e+000  1.000000e+000
    outer loop
      vertex -2.600000e+001 -6.000000e+000  6.500000e+000
      vertex -2.700000e+001  6.000000e+000  6.500000e+000
      vertex -2.700000e+001 -6.000000e+000  6.500000e+000
    endloop
  endfacet
  facet normal  0.000000e+000  1.000000e+000  0.000000e+000
    outer loop
      vertex -2.600000e+001 -6.000000e+000  6.500000e+000
      vertex -2.700000e+001 -6.000000e+000  6.500000e+000
      vertex -2.600000e+001 -6.000000e+000  1.000000e+001
    endloop
  endfacet
  facet normal  0.000000e+000  1.000000e+000  0.000000e+000
    outer loop
      vertex -2.600000e+001 -6.000000e+000  1.000000e+001
      vertex -2.700000e+001 -6.000000e+000  6.500000e+000
      vertex -2.700000e+001 -6.000000e+000  1.000000e+001
    endloop
  endfacet
  facet normal  0.000000e+000  0.000000e+000  1.000000e+000
    outer loop
      vertex -2.600000e+001 -2.100000e+001  1.000000e+000
      vertex  2.600000e+001 -2.100000e+001  1.000000e+000
      vertex -2.600000e+001  2.100000e+001  1.000000e+000
    endloop
  endfacet
  facet normal  -0.000000e+000  0.000000e+000  1.000000e+000
    outer loop
      vertex -2.600000e+001  2.100000e+001  1.000000e+000
      vertex  2.600000e+001 -2.100000e+001  1.000000e+000
      vertex  2.600000e+001  2.100000e+001  1.000000e+000
    endloop
  endfacet
  facet normal  0.000000e+000  1.000000e+000  0.000000e+000
    outer loop
      vertex -2.700000e+001  2.200000e+001  1.000000e+001
      vertex  2.700000e+001  2.200000e+001  1.000000e+001
      vertex -2.700000e+001  2.200000e+001  0.000000e+000
    endloop
  endfacet
  facet normal  0.000000e+000  1.000000e+000  0.000000e+000
    outer loop
      vertex -2.700000e+001  2.200000e+001  0.000000e+000
      vertex  2.700000e+001  2.200000e+001  1.000000e+001
      vertex  2.700000e+001  2.200000e+001  0.000000e+000
    endloop
  endfacet
  facet normal  0.000000e+000  0.000000e+000 -1.000000e+000
    outer loop
      vertex -2.700000e+001 -2.200000e+001  0.000000e+000
      vertex -2.700000e+001  2.200000e+001  0.000000e+000
      vertex  2.700000e+001 -2.200000e+001  0.000000e+000
    endloop
  endfacet
  facet normal  0.000000e+000  0.000000e+000 -1.000000e+000
    outer loop
      vertex  2.700000e+001 -2.200000e+001  0.000000e+000
      vertex -2.700000e+001  2.200000e+001  0.000000e+000
      vertex  2.700000e+001  2.200000e+001  0.000000e+000
    endloop
  endfacet
endsolid CATIA STL
